# xmcd
#
# Track frame offsets:
#	150
#	17007
#	34105
#	52007
#	67980
#	83285
#	96365
#	111872
#	125942
#	141387
#	155327
#	170377
#	185577
#	200350
#	212092
#	224647
#
# Disc length: 3180 seconds
#
# Revision: 1
# Processed by: cddbd v1.4PL0 Copyright (c) Steve Scherf et al.
# Submitted via: audiograbber 1.80.04
#
DISCID=eb0c6a10
DTITLE=Caviar com Rapadura - Vivendo Essa Paixão
DYEAR=2002
DGENRE=Forró
TTITLE0=Louco Coração
TTITLE1=Vivendo Essa Paixão
TTITLE2=Amor Fatal
TTITLE3=Mexe, Mexe
TTITLE4=Olho no Olho
TTITLE5=Ninguem Segura
TTITLE6=Ralacoco
TTITLE7=Meu Mel
TTITLE8=Forró Caliente
TTITLE9=Tudo Vai Rolar Entre Eu e Você
TTITLE10=Me Deixe Viver
TTITLE11=A Gente se Entrega
TTITLE12=Ser ou Não Ser
TTITLE13=A Condenada
TTITLE14=Peão Apaixonado
TTITLE15=Pé de Bode
EXTD=
EXTT0=
EXTT1=
EXTT2=
EXTT3=
EXTT4=
EXTT5=
EXTT6=
EXTT7=
EXTT8=
EXTT9=
EXTT10=
EXTT11=
EXTT12=
EXTT13=
EXTT14=
EXTT15=
PLAYORDER=
